<?xml version="1.0" encoding="UTF-8"?>
<svg width="338px" height="338px" viewBox="0 0 338 338" version="1.1" xmlns="http://www.w3.org/2000/svg" xmlns:xlink="http://www.w3.org/1999/xlink">
    <!-- Generator: Sketch 52.2 (67145) - http://www.bohemiancoding.com/sketch -->
    <title>programmer</title>
    <desc>Created with Sketch.</desc>
    <g id="Page-1" stroke="none" stroke-width="1" fill="none" fill-rule="evenodd">
        <g id="Desktop-HD" transform="translate(-848.000000, -355.000000)">
            <g id="han-van-oostende">
                <g id="programmer" transform="translate(848.000000, 355.000000)">
                    <rect id="Rectangle" fill="#000000" x="0" y="0" width="10" height="10"></rect>
                    <rect id="Rectangle" fill="#000000" x="23" y="0" width="10" height="10"></rect>
                    <rect id="Rectangle" fill="#000000" x="35" y="45" width="10" height="10"></rect>
                    <rect id="Rectangle" fill="#000000" x="57" y="45" width="10" height="10"></rect>
                    <rect id="Rectangle" fill="#000000" x="45" y="23" width="17" height="10"></rect>
                    <rect id="Rectangle" fill="#000000" x="45" y="0" width="28" height="10"></rect>
                    <rect id="Rectangle" fill="#000000" x="0" y="23" width="34" height="10"></rect>
                    <rect id="Rectangle" fill="#000000" x="0" y="45" width="23" height="10"></rect>
                    <rect id="Rectangle" fill="#000000" x="40" y="147" width="10" height="10"></rect>
                    <rect id="Rectangle" fill="#000000" x="29" y="102" width="10" height="10"></rect>
                    <rect id="Rectangle" fill="#000000" x="5" y="102" width="10" height="10"></rect>
                    <rect id="Rectangle" fill="#000000" x="11" y="124" width="17" height="10"></rect>
                    <rect id="Rectangle" fill="#000000" x="0" y="147" width="28" height="10"></rect>
                    <rect id="Rectangle" fill="#000000" x="39" y="124" width="17" height="10"></rect>
                    <rect id="Rectangle" fill="#000000" x="51" y="102" width="17" height="10"></rect>
                    <rect id="Rectangle" fill="#000000" x="265" y="0" width="10" height="10"></rect>
                    <rect id="Rectangle" fill="#000000" x="288" y="0" width="10" height="10"></rect>
                    <rect id="Rectangle" fill="#000000" x="305" y="45" width="10" height="10"></rect>
                    <rect id="Rectangle" fill="#000000" x="328" y="45" width="10" height="10"></rect>
                    <rect id="Rectangle" fill="#000000" x="310" y="23" width="17" height="10"></rect>
                    <rect id="Rectangle" fill="#000000" x="310" y="0" width="28" height="10"></rect>
                    <rect id="Rectangle" fill="#000000" x="264" y="23" width="34" height="10"></rect>
                    <rect id="Rectangle" fill="#000000" x="276" y="45" width="17" height="10"></rect>
                    <rect id="Rectangle" fill="#000000" x="328" y="147" width="10" height="10"></rect>
                    <rect id="Rectangle" fill="#000000" x="299" y="102" width="10" height="10"></rect>
                    <rect id="Rectangle" fill="#000000" x="277" y="102" width="10" height="10"></rect>
                    <rect id="Rectangle" fill="#000000" x="282" y="124" width="17" height="10"></rect>
                    <rect id="Rectangle" fill="#000000" x="288" y="147" width="28" height="10"></rect>
                    <rect id="Rectangle" fill="#000000" x="310" y="124" width="17" height="10"></rect>
                    <rect id="Rectangle" fill="#000000" x="321" y="102" width="17" height="10"></rect>
                    <rect id="Rectangle" fill="#000000" x="0" y="209" width="10" height="10"></rect>
                    <rect id="Rectangle" fill="#000000" x="23" y="209" width="10" height="10"></rect>
                    <rect id="Rectangle" fill="#000000" x="35" y="254" width="10" height="10"></rect>
                    <rect id="Rectangle" fill="#000000" x="74" y="231" width="10" height="10"></rect>
                    <rect id="Rectangle" fill="#000000" x="45" y="231" width="17" height="10"></rect>
                    <rect id="Rectangle" fill="#000000" x="45" y="209" width="28" height="10"></rect>
                    <rect id="Rectangle" fill="#000000" x="0" y="231" width="34" height="10"></rect>
                    <rect id="Rectangle" fill="#000000" x="0" y="254" width="23" height="10"></rect>
                    <path d="M332.366667,219.7 L276.033333,219.7 C274.4729,219.7 273.064567,220.336567 272.044933,221.3562 L238.261833,255.1393 C237.281633,256.113867 236.690133,257.460233 236.639433,258.9418 L214.066667,249.7144 L214.066667,222.0322 L246.2161,189.882767 C247.275167,188.829333 247.866667,187.398467 247.866667,185.9 L247.866667,168.7127 C260.507867,167.2931 270.4,156.663 270.4,143.65 C270.4,132.8678 263.600567,123.696733 254.0915,120.0407 L257.482767,116.649433 C258.541833,115.596 259.133333,114.165133 259.133333,112.666667 L259.133333,73.2333333 C259.133333,45.2751 236.391567,22.5333333 208.433333,22.5333333 L207.982667,22.5333333 C199.983333,8.7373 185.060633,0 169,0 L129.566667,0 C126.451433,0 123.933333,2.5181 123.933333,5.63333333 C123.933333,11.5032667 125.06,17.238 127.245733,22.5896667 C100.363467,23.8064667 78.8666667,46.0581333 78.8666667,73.2333333 L78.8666667,112.666667 C78.8666667,114.165133 79.4581667,115.596 80.5172333,116.649433 L83.9085,120.0407 C74.3994333,123.696733 67.6,132.8678 67.6,143.65 C67.6,156.663 77.4921333,167.2931 90.1333333,168.7127 L90.1333333,185.9 C90.1333333,187.398467 90.7248333,188.829333 91.7839,189.882767 L123.933333,222.0322 L123.933333,249.7144 L3.4983,298.983533 C1.38016667,299.8567 0,301.912867 0,304.2 L0,332.366667 C0,335.4819 2.5181,338 5.63333333,338 L242.233333,338 L332.366667,338 C335.4819,338 338,335.4819 338,332.366667 L338,225.333333 C338,222.2181 335.4819,219.7 332.366667,219.7 Z M259.133333,143.65 C259.133333,150.449433 254.288667,156.144733 247.866667,157.451667 L247.866667,129.848333 C254.288667,131.155267 259.133333,136.850567 259.133333,143.65 Z M90.1333333,157.451667 C83.7113333,156.144733 78.8666667,150.449433 78.8666667,143.65 C78.8666667,136.850567 83.7113333,131.155267 90.1333333,129.848333 L90.1333333,157.451667 Z M90.1333333,110.334467 L90.1333333,73.2333333 C90.1333333,51.4943 107.827633,33.8 129.566667,33.8 L136.664667,33.8 C138.7659,33.8 140.686867,32.6339 141.661433,30.7749 C142.630367,28.9102667 142.4839,26.6682 141.289633,24.9444 C138.3941,20.8039 136.495667,16.1564 135.6732,11.2666667 L169,11.2666667 C181.9454,11.2666667 193.921867,18.8491333 199.498867,30.589 C200.434,32.5494 202.416933,33.8 204.585767,33.8 L208.433333,33.8 C230.172367,33.8 247.866667,51.4943 247.866667,73.2333333 L247.866667,110.334467 L242.233333,115.9678 L236.6,110.334467 L236.6,73.2333333 C236.6,71.6503667 235.935267,70.1406333 234.769167,69.0759333 C233.597433,68.0112333 232.031367,67.4704333 230.454033,67.6225333 L169,73.2108 L107.545967,67.6225333 C105.9799,67.4760667 104.4082,68.0056 103.230833,69.0759333 C102.064733,70.1406333 101.4,71.6503667 101.4,73.2333333 L101.4,110.334467 L95.7666667,115.9678 L90.1333333,110.334467 Z M101.4,183.5678 L101.4,163.366667 L101.4,126.265533 L111.0161,116.649433 C112.075167,115.596 112.666667,114.165133 112.666667,112.666667 L112.666667,79.4018333 L168.487367,84.4774667 C168.831,84.5112667 169.169,84.5112667 169.512633,84.4774667 L225.333333,79.4018333 L225.333333,112.666667 C225.333333,114.165133 225.924833,115.596 226.9839,116.649433 L236.6,126.265533 L236.6,163.366667 L236.6,183.5678 L189.201133,230.966667 L148.798867,230.966667 L101.4,183.5678 Z M202.8,233.298867 L202.8,250.598833 L169,274.7433 L135.2,250.598833 L135.2,233.298867 L142.4839,240.582767 C143.537333,241.641833 144.9682,242.233333 146.466667,242.233333 L191.533333,242.233333 C193.0318,242.233333 194.462667,241.641833 195.5161,240.582767 L202.8,233.298867 Z M236.6,326.733333 L11.2666667,326.733333 L11.2666667,307.979967 L128.823067,259.893833 L165.727033,286.2522 C166.707233,286.950733 167.8508,287.3 169,287.3 C170.1492,287.3 171.292767,286.950733 172.272967,286.246567 L209.176933,259.8882 L236.6,271.1098 L236.6,326.733333 Z M270.4,238.9322 L270.4,253.5 L255.8322,253.5 L270.4,238.9322 Z M326.733333,326.733333 L247.866667,326.733333 L247.866667,267.3242 L247.866667,264.766667 L276.033333,264.766667 C279.148567,264.766667 281.666667,262.248567 281.666667,259.133333 L281.666667,230.966667 L326.733333,230.966667 L326.733333,326.733333 Z" id="Shape" fill="#000000" fill-rule="nonzero"></path>
                    <rect id="Rectangle" fill="#000000" x="260" y="277" width="10" height="10"></rect>
                    <rect id="Rectangle" fill="#000000" x="283" y="277" width="10" height="10"></rect>
                    <rect id="Rectangle" fill="#000000" x="305" y="277" width="10" height="10"></rect>
                    <rect id="Rectangle" fill="#000000" x="259" y="299" width="23" height="10"></rect>
                    <rect id="Rectangle" fill="#000000" x="293" y="299" width="23" height="10"></rect>
                    <rect id="Rectangle" fill="#000000" x="293" y="254" width="23" height="10"></rect>
                    <rect id="Rectangle" fill="#000000" x="165" y="299" width="10" height="10"></rect>
                    <path d="M145,128.010251 L136.889532,120 L119.682033,136.994875 C117.439322,139.209873 117.439322,142.790127 119.682033,145.005125 L136.889532,162 L145,153.989749 L131.847735,141 L145,128.010251 Z" id="Path" fill="#000000"></path>
                    <path d="M218.317967,136.994875 L201.110468,120 L193,128.010251 L206.152265,141 L193,153.989749 L201.110468,162 L218.317967,145.005125 C220.560678,142.790127 220.560678,139.209873 218.317967,136.994875 Z" id="Path" fill="#000000"></path>
                    <polygon id="Rectangle" fill="#000000" transform="translate(168.989641, 140.839180) rotate(-63.434949) translate(-168.989641, -140.839180) " points="143.798844 135.206018 194.180438 135.206018 194.180438 146.472342 143.798844 146.472342"></polygon>
                    <rect id="Rectangle" fill="#FF0000" x="165" y="181" width="10" height="10"></rect>
                    <rect id="Rectangle" fill="#FF0000" x="186" y="181" width="10" height="10"></rect>
                    <rect id="Rectangle" fill="#FF0000" x="142" y="181" width="10" height="10"></rect>
                </g>
            </g>
        </g>
    </g>
</svg>